HIERARCHY
ROOT Hips
{
	OFFSET 0.000000 0.000000 0.000000
	CHANNELS 6 Xposition Yposition Zposition Zrotation Yrotation Xrotation 
	JOINT LowerBack
	{
		OFFSET 0.000000 0.000000 0.000000
		CHANNELS 3 Zrotation Yrotation Xrotation
		JOINT Spine
		{
			OFFSET 0.028270 2.035590 -0.193380
			CHANNELS 3 Zrotation Yrotation Xrotation
			JOINT Spine1
			{
				OFFSET 0.056720 2.048850 -0.042750
				CHANNELS 3 Zrotation Yrotation Xrotation
				JOINT Neck
				{
					OFFSET 0.000000 0.000000 0.000000
					CHANNELS 3 Zrotation Yrotation Xrotation
					JOINT Neck1
					{
						OFFSET -0.054170 1.746240 0.172020
						CHANNELS 3 Zrotation Yrotation Xrotation
						JOINT Head
						{
							OFFSET 0.104070 1.761360 -0.123970
							CHANNELS 3 Zrotation Yrotation Xrotation
							End Site
							{
								OFFSET 0.000000 0.000000 0.000000
							}
						}
					}
				}
				JOINT LeftShoulder
				{
					OFFSET 0.000000 0.000000 0.000000
					CHANNELS 3 Zrotation Yrotation Xrotation
					JOINT LeftArm
					{
						OFFSET 3.362410 1.200890 -0.311210
						CHANNELS 3 Zrotation Yrotation Xrotation
						JOINT LeftForeArm
						{
							OFFSET 4.983000 -0.000000 -0.000000
							CHANNELS 3 Zrotation Yrotation Xrotation
							JOINT LeftHand
							{
								OFFSET 3.483560 -0.000000 -0.000000
								CHANNELS 3 Zrotation Yrotation Xrotation
								JOINT LeftFingerBase
								{
									OFFSET 0.000000 0.000000 0.000000
									CHANNELS 3 Zrotation Yrotation Xrotation
									JOINT LeftHandIndex1
									{
										OFFSET 0.715260 -0.000000 -0.000000
										CHANNELS 3 Zrotation Yrotation Xrotation
										End Site
										{
											OFFSET 0.000000 0.000000 0.000000
										}
									}
								}
								JOINT LThumb
								{
									OFFSET 0.000000 0.000000 0.000000
									CHANNELS 3 Zrotation Yrotation Xrotation
									End Site
									{
										OFFSET 0.000000 0.000000 0.000000
									}
								}
							}
						}
					}
				}
				JOINT RightShoulder
				{
					OFFSET 0.000000 0.000000 0.000000
					CHANNELS 3 Zrotation Yrotation Xrotation
					JOINT RightArm
					{
						OFFSET -3.136600 1.374050 -0.404650
						CHANNELS 3 Zrotation Yrotation Xrotation
						JOINT RightForeArm
						{
							OFFSET -5.241900 -0.000000 -0.000000
							CHANNELS 3 Zrotation Yrotation Xrotation
							JOINT RightHand
							{
								OFFSET -3.444170 -0.000000 -0.000000
								CHANNELS 3 Zrotation Yrotation Xrotation
								JOINT RightFingerBase
								{
									OFFSET 0.000000 0.000000 0.000000
									CHANNELS 3 Zrotation Yrotation Xrotation
									JOINT RightHandIndex1
									{
										OFFSET -0.622530 -0.000000 -0.000000
										CHANNELS 3 Zrotation Yrotation Xrotation
										End Site
										{
											OFFSET 0.000000 0.000000 0.000000
										}
									}
								}
								JOINT RThumb
								{
									OFFSET 0.000000 0.000000 0.000000
									CHANNELS 3 Zrotation Yrotation Xrotation
									End Site
									{
										OFFSET 0.000000 0.000000 0.000000
									}
								}
							}
						}
					}
				}
			}
		}
	}
}
}
MOTION
Frames: 11
Frame Time: 0.008333
5.775614 17.606517 1.553322 2.049970 81.229224 21.216624 -0.406637 -0.918378 6.142014 -1.183671 -0.711882 -1.836819 -7.889160 -0.802721 -0.292136 6.215923 5.795665 5.368537 -5.080383 -0.425963 3.043332 0.000000 0.000000 0.000000 -6.616754 -7.589153 1.992986 -66.162842 -27.396475 26.372687 -2.969075 -39.647976 -0.009062 4.236749 -2.211456 -0.091914 -0.137474 0.229370 -0.000000 0.000000 0.000000 0.000000 0.000000 0.000000 0.000000 18.397396 3.504350 0.606221 67.688460 14.291921 2.977976 3.252314 20.693474 0.011625 4.047376 7.311919 0.259588 0.039339 -0.086404 -0.000000 0.000000 0.000000 0.000000 0.000000 0.000000 0.000000 
5.931719 17.604917 1.581243 1.511065 81.105416 20.712042 -0.159663 -0.977812 6.015237 -1.119710 -0.782561 -1.871527 -7.876476 -0.875024 -0.323164 6.328285 5.678246 5.270836 -5.044745 -0.424283 3.030569 0.000000 0.000000 0.000000 -6.452684 -7.598472 1.940740 -66.606468 -27.923930 26.909331 -2.925381 -40.500548 -0.009619 4.280143 -2.276479 -0.095781 -0.139863 0.238760 0.000000 0.000000 0.000000 0.000000 0.000000 0.000000 0.000000 18.373977 3.446773 0.697165 67.267877 13.920445 2.636010 3.287678 20.532504 0.011928 4.081252 7.308363 0.261491 0.041133 -0.086651 -0.000000 0.000000 0.000000 0.000000 0.000000 0.000000 0.000000 
6.088774 17.599206 1.611094 1.093155 80.979823 20.350522 0.070870 -1.034210 5.869443 -1.058930 -0.850998 -1.908332 -7.860183 -0.944887 -0.347120 6.440422 5.551219 5.165021 -5.008087 -0.422544 3.015577 0.000000 0.000000 0.000000 -6.277444 -7.578720 1.885339 -67.050393 -28.462061 27.428405 -2.885305 -41.297383 -0.010148 4.312195 -2.326411 -0.098751 -0.142196 0.247740 -0.000000 0.000000 0.000000 0.000000 0.000000 0.000000 0.000000 18.344689 3.382578 0.785267 66.851532 13.573928 2.336939 3.322223 20.350505 0.012231 4.087063 7.316258 0.262097 0.043166 -0.086946 -0.000000 0.000000 0.000000 0.000000 0.000000 0.000000 0.000000 
6.246885 17.589630 1.642789 0.814491 80.857373 20.151534 0.284588 -1.088326 5.703363 -1.001257 -0.918038 -1.949146 -7.839921 -1.013520 -0.369819 6.553911 5.429373 5.058194 -4.969652 -0.420756 3.000410 0.000000 0.000000 0.000000 -6.095936 -7.552085 1.829279 -67.483367 -28.981106 27.914419 -2.846553 -42.060106 -0.010671 4.335627 -2.359144 -0.100921 -0.144347 0.256317 -0.000000 0.000000 0.000000 0.000000 0.000000 0.000000 0.000000 18.307735 3.325039 0.871895 66.442348 13.229814 2.039500 3.355279 20.157776 0.012527 4.074394 7.326498 0.261502 0.045316 -0.087296 -0.000000 0.000000 0.000000 0.000000 0.000000 0.000000 0.000000 
6.405726 17.576572 1.676163 0.694257 80.734090 20.119596 0.478514 -1.138620 5.532342 -0.947250 -0.981240 -1.993657 -7.814556 -1.078867 -0.402314 6.670126 5.331381 4.962175 -4.928616 -0.418953 2.988138 0.000000 0.000000 0.000000 -5.907726 -7.563460 1.774524 -67.889126 -29.428859 28.328891 -2.803513 -42.829243 -0.011258 4.357721 -2.363873 -0.101997 -0.146038 0.264494 -0.000000 0.000000 0.000000 0.000000 0.000000 0.000000 0.000000 18.260739 3.291398 0.961075 66.043395 12.866306 1.693808 3.386601 19.960058 0.012820 4.058371 7.334714 0.260606 0.047416 -0.087772 -0.000000 0.000000 0.000000 0.000000 0.000000 0.000000 0.000000 
6.565807 17.560350 1.711384 0.744873 80.621599 20.285224 0.653897 -1.189534 5.341094 -0.897266 -1.045821 -2.039730 -7.789199 -1.145332 -0.423994 6.789031 5.213452 4.853470 -4.889725 -0.417179 2.972261 0.000000 0.000000 0.000000 -5.736651 -7.545397 1.721985 -68.261768 -29.891771 28.738579 -2.765156 -43.556508 -0.011775 4.370179 -2.368664 -0.102772 -0.147767 0.272307 -0.000000 0.000000 0.000000 0.000000 0.000000 0.000000 0.000000 18.225819 3.234523 1.047008 65.641777 12.546226 1.388656 3.416314 19.730443 0.013098 4.006900 7.349727 0.257711 0.049763 -0.088250 -0.000000 0.000000 0.000000 0.000000 0.000000 0.000000 0.000000 
6.726743 17.541408 1.748395 0.984252 80.516017 20.649817 0.805905 -1.239691 5.145390 -0.852084 -1.109374 -2.088182 -7.761804 -1.211153 -0.450844 6.913192 5.109122 4.751320 -4.851186 -0.415477 2.957890 0.000000 0.000000 0.000000 -5.573759 -7.558496 1.673720 -68.588615 -30.296582 29.081806 -2.724631 -44.287283 -0.012288 4.375058 -2.361568 -0.102949 -0.149075 0.279807 -0.000000 0.000000 0.000000 0.000000 0.000000 0.000000 0.000000 18.197154 3.186097 1.134273 65.244830 12.227525 1.045926 3.443880 19.482658 0.013360 3.944708 7.362867 0.253916 0.052090 -0.088805 -0.000000 0.000000 0.000000 0.000000 0.000000 0.000000 0.000000 
6.888541 17.520052 1.787364 1.417673 80.421712 21.217261 0.934057 -1.291279 4.947350 -0.811969 -1.173904 -2.137353 -7.733937 -1.278117 -0.478482 7.043007 5.011373 4.651870 -4.814360 -0.413865 2.943807 0.000000 0.000000 0.000000 -5.424905 -7.588724 1.630815 -68.865332 -30.662434 29.369828 -2.684353 -45.009529 -0.012742 4.368273 -2.354037 -0.102727 -0.150050 0.287039 -0.000000 0.000000 0.000000 0.000000 0.000000 0.000000 0.000000 18.181451 3.137120 1.221181 64.852203 11.924958 0.673642 3.469147 19.208401 0.013597 3.867920 7.373573 0.249220 0.054419 -0.089392 -0.000000 0.000000 0.000000 0.000000 0.000000 0.000000 0.000000 
7.051008 17.496485 1.828523 2.073400 80.337984 22.002302 1.030388 -1.345501 4.759250 -0.778601 -1.239597 -2.185367 -7.705414 -1.346423 -0.510406 7.180546 4.926501 4.560323 -4.779371 -0.412370 2.931162 0.000000 0.000000 0.000000 -5.282617 -7.651979 1.593396 -69.088637 -30.971415 29.584576 -2.642921 -45.731897 -0.013127 4.348171 -2.346655 -0.102206 -0.150544 0.294019 -0.000000 0.000000 0.000000 0.000000 0.000000 0.000000 0.000000 18.181206 3.091700 1.308220 64.467256 11.633619 0.258576 3.491511 18.907447 0.013807 3.780365 7.380456 0.243524 0.056678 -0.090005 -0.000000 0.000000 0.000000 0.000000 0.000000 0.000000 0.000000 
7.214283 17.470677 1.872013 2.909197 80.274120 22.962102 1.104082 -1.405363 4.581511 -0.749966 -1.309762 -2.230278 -7.677017 -1.419074 -0.539588 7.322503 4.844430 4.470400 -4.746371 -0.410926 2.918232 0.000000 0.000000 0.000000 -5.152017 -7.720230 1.561418 -69.264748 -31.255642 29.754424 -2.604021 -46.430129 -0.013396 4.314038 -2.351811 -0.101885 -0.150769 0.300764 -0.000000 0.000000 0.000000 0.000000 0.000000 0.000000 0.000000 18.193198 3.039419 1.392069 64.097133 11.369667 -0.193386 3.511289 18.571380 0.013981 3.680180 7.380877 0.236927 0.058905 -0.090581 -0.000000 0.000000 0.000000 0.000000 0.000000 0.000000 0.000000 
7.378233 17.442469 1.918132 3.939795 80.230777 24.094797 1.150378 -1.472101 4.427413 -0.726922 -1.384714 -2.269971 -7.647555 -1.496366 -0.569354 7.469417 4.769115 4.386756 -4.714622 -0.409518 2.906124 0.000000 0.000000 0.000000 -5.020534 -7.807038 1.533362 -69.399056 -31.496977 29.867039 -2.566008 -47.109861 -0.013565 4.267982 -2.366046 -0.101565 -0.150619 0.307229 -0.000000 0.000000 0.000000 0.000000 0.000000 0.000000 0.000000 18.213851 2.983031 1.472670 63.749578 11.126326 -0.690172 3.527942 18.202665 0.014114 3.570511 7.373950 0.229429 0.061044 -0.091108 -0.000000 0.000000 0.000000 0.000000 0.000000 0.000000 0.000000 
